<svg width="80" height="80" viewBox="0 0 80 80" fill="none" xmlns="http://www.w3.org/2000/svg">
<rect x="2" y="2" width="76" height="76" rx="38" stroke="#50E3C2" stroke-width="4"/>
<path d="M36.1607 53.75H43.3393V47.5H49.3214V40H43.3393V33.75H36.1607V40H30.1786V47.5H36.1607V53.75ZM27.7857 62.5C26.4696 62.5 25.343 62.0104 24.4058 61.0312C23.4686 60.0521 23 58.875 23 57.5V30C23 28.625 23.4686 27.4479 24.4058 26.4688C25.343 25.4896 26.4696 25 27.7857 25H51.7143C53.0304 25 54.157 25.4896 55.0942 26.4688C56.0314 27.4479 56.5 28.625 56.5 30V57.5C56.5 58.875 56.0314 60.0521 55.0942 61.0312C54.157 62.0104 53.0304 62.5 51.7143 62.5H27.7857ZM27.7857 57.5H51.7143V30H27.7857V57.5ZM25.3929 22.5V17.5H54.1071V22.5H25.3929Z" fill="#00796B"/>
</svg>
