<svg width="175" height="102" viewBox="0 0 175 102" fill="none" xmlns="http://www.w3.org/2000/svg">
<path d="M75.5682 102C71.1932 102 67.4479 100.002 64.3324 96.0075C61.2169 92.0125 59.6591 87.21 59.6591 81.6V20.4C59.6591 14.79 61.2169 9.9875 64.3324 5.9925C67.4479 1.9975 71.1932 0 75.5682 0H99.4318C103.807 0 107.552 1.9975 110.668 5.9925C113.783 9.9875 115.341 14.79 115.341 20.4V81.6C115.341 87.21 113.783 92.0125 110.668 96.0075C107.552 100.002 103.807 102 99.4318 102H75.5682ZM0 102V81.6H31.8182V61.2H15.9091C11.5341 61.2 7.78883 59.2025 4.6733 55.2075C1.55777 51.2125 0 46.41 0 40.8V20.4C0 14.79 1.55777 9.9875 4.6733 5.9925C7.78883 1.9975 11.5341 0 15.9091 0H47.7273V20.4H15.9091V40.8H31.8182C36.1932 40.8 39.9384 42.7975 43.054 46.7925C46.1695 50.7875 47.7273 55.59 47.7273 61.2V81.6C47.7273 87.21 46.1695 92.0125 43.054 96.0075C39.9384 100.002 36.1932 102 31.8182 102H0ZM127.273 102V81.6H159.091V61.2H143.182C138.807 61.2 135.062 59.2025 131.946 55.2075C128.83 51.2125 127.273 46.41 127.273 40.8V20.4C127.273 14.79 128.83 9.9875 131.946 5.9925C135.062 1.9975 138.807 0 143.182 0H175V20.4H143.182V40.8H159.091C163.466 40.8 167.211 42.7975 170.327 46.7925C173.442 50.7875 175 55.59 175 61.2V81.6C175 87.21 173.442 92.0125 170.327 96.0075C167.211 100.002 163.466 102 159.091 102H127.273ZM75.5682 81.6H99.4318V20.4H75.5682V81.6Z" fill="#FF5252"/>
</svg>
