<svg width="160" height="160" viewBox="0 0 160 160" fill="none" xmlns="http://www.w3.org/2000/svg">
<rect x="2" y="2" width="156" height="156" rx="78" stroke="#50E3C2" stroke-width="4"/>
<path d="M113.333 100C108.667 100 104.722 98.3889 101.5 95.1667C98.2779 91.9444 96.6668 88 96.6668 83.3333C96.6668 78.6667 98.2779 74.7222 101.5 71.5C104.722 68.2778 108.667 66.6667 113.333 66.6667C118 66.6667 121.945 68.2778 125.167 71.5C128.389 74.7222 130 78.6667 130 83.3333C130 88 128.389 91.9444 125.167 95.1667C121.945 98.3889 118 100 113.333 100ZM80.0002 133.333V124C80.0002 121.333 80.6946 118.861 82.0835 116.583C83.4724 114.306 85.4446 112.667 88.0002 111.667C92.0002 110 96.139 108.75 100.417 107.917C104.695 107.083 109 106.667 113.333 106.667C117.667 106.667 121.972 107.083 126.25 107.917C130.528 108.75 134.667 110 138.667 111.667C141.222 112.667 143.195 114.306 144.583 116.583C145.972 118.861 146.667 121.333 146.667 124V133.333H80.0002ZM66.6668 80C59.3335 80 53.0557 77.3889 47.8335 72.1667C42.6113 66.9444 40.0002 60.6667 40.0002 53.3333C40.0002 46 42.6113 39.7222 47.8335 34.5C53.0557 29.2778 59.3335 26.6667 66.6668 26.6667C74.0002 26.6667 80.2779 29.2778 85.5002 34.5C90.7224 39.7222 93.3335 46 93.3335 53.3333C93.3335 60.6667 90.7224 66.9444 85.5002 72.1667C80.2779 77.3889 74.0002 80 66.6668 80ZM13.3335 133.333V114.667C13.3335 110.889 14.2779 107.417 16.1668 104.25C18.0557 101.083 20.6668 98.6667 24.0002 97C30.6668 93.6667 37.5835 91.1111 44.7502 89.3333C51.9168 87.5555 59.2224 86.6667 66.6668 86.6667C70.5557 86.6667 74.4446 87 78.3335 87.6667C82.2224 88.3333 86.1113 89.1111 90.0002 90L84.3335 95.6667L78.6668 101.333C76.6668 100.778 74.6668 100.417 72.6668 100.25C70.6668 100.083 68.6668 100 66.6668 100C60.2224 100 53.9168 100.778 47.7502 102.333C41.5835 103.889 35.6668 106.111 30.0002 109C28.8891 109.556 28.0557 110.333 27.5002 111.333C26.9446 112.333 26.6668 113.444 26.6668 114.667V120H66.6668V133.333H13.3335ZM66.6668 66.6667C70.3335 66.6667 73.4724 65.3611 76.0835 62.75C78.6946 60.1389 80.0002 57 80.0002 53.3333C80.0002 49.6667 78.6946 46.5278 76.0835 43.9167C73.4724 41.3055 70.3335 40 66.6668 40C63.0002 40 59.8613 41.3055 57.2502 43.9167C54.639 46.5278 53.3335 49.6667 53.3335 53.3333C53.3335 57 54.639 60.1389 57.2502 62.75C59.8613 65.3611 63.0002 66.6667 66.6668 66.6667Z" fill="#00796B"/>
</svg>
