<svg width="1920" height="580" viewBox="0 0 1920 580" fill="none" xmlns="http://www.w3.org/2000/svg">
<path fill-rule="evenodd" clip-rule="evenodd" d="M1920.34 155.821L1920.27 404.753C1840.31 456.745 1681.29 535.926 1527.29 568.927C1349.29 607.071 1153.24 519.756 1012.28 461.904C873.919 405.118 645 259.264 497.269 343.317C337.33 434.316 242.5 444.904 155.5 461.904L110 461.904L68 454L0.277017 429.393L0.239125 1.24452L80.2391 1.19266C160.238 1.14081 320.241 1.0371 480.239 0.933391C640.237 0.829684 800.241 0.725973 960.239 0.622266C1120.24 0.518559 1280.24 0.414848 1440.24 0.311141C1600.24 0.207434 1760.24 0.103724 1840.24 0.0518699L1920.24 1.57238e-05L1920.34 155.821Z" fill="#E5F6F8"/>
</svg>
