<svg width="1920" height="580" viewBox="0 0 1920 580" fill="none" xmlns="http://www.w3.org/2000/svg">
<path fill-rule="evenodd" clip-rule="evenodd" d="M1920.34 155.821L1920.27 404.753C1840.31 456.745 1681.29 535.926 1527.29 568.927C1349.29 607.072 1153.24 519.756 1012.28 461.904C873.919 405.118 657.208 252.318 497.269 343.317C337.33 434.316 241.28 461.826 156.779 461.817L78.5281 445.605L0.277017 429.393L0.239125 1.24464L80.2391 1.19278C160.238 1.14093 320.241 1.03722 480.239 0.933513C640.237 0.829806 800.241 0.726095 960.239 0.622388C1120.24 0.518681 1280.24 0.41497 1440.24 0.311263C1600.24 0.207556 1760.24 0.103846 1840.24 0.051992L1920.24 0.000137794L1920.34 155.821Z" fill="#D9D9D9"/>
</svg>
