<svg width="252" height="259" viewBox="0 0 252 259" fill="none" xmlns="http://www.w3.org/2000/svg">
<path d="M94.5 153.781C90.825 153.781 87.7188 152.477 85.1812 149.869C82.6437 147.261 81.375 144.069 81.375 140.292C81.375 136.515 82.6437 133.322 85.1812 130.714C87.7188 128.106 90.825 126.802 94.5 126.802C98.175 126.802 101.281 128.106 103.819 130.714C106.356 133.322 107.625 136.515 107.625 140.292C107.625 144.069 106.356 147.261 103.819 149.869C101.281 152.477 98.175 153.781 94.5 153.781ZM157.5 153.781C153.825 153.781 150.719 152.477 148.181 149.869C145.644 147.261 144.375 144.069 144.375 140.292C144.375 136.515 145.644 133.322 148.181 130.714C150.719 128.106 153.825 126.802 157.5 126.802C161.175 126.802 164.281 128.106 166.819 130.714C169.356 133.322 170.625 136.515 170.625 140.292C170.625 144.069 169.356 147.261 166.819 149.869C164.281 152.477 161.175 153.781 157.5 153.781ZM126 215.833C149.45 215.833 169.312 207.47 185.587 190.743C201.862 174.016 210 153.601 210 129.5C210 125.183 209.737 121.001 209.212 116.955C208.687 112.908 207.725 108.996 206.325 105.219C202.65 106.118 198.975 106.792 195.3 107.242C191.625 107.692 187.775 107.917 183.75 107.917C167.825 107.917 152.775 104.409 138.6 97.3947C124.425 90.3801 112.35 80.5777 102.375 67.9874C96.775 82.0166 88.7687 94.2022 78.3562 104.544C67.9437 114.886 55.825 122.665 42 127.881V129.5C42 153.601 50.1375 174.016 66.4125 190.743C82.6875 207.47 102.55 215.833 126 215.833ZM126 237.417C111.475 237.417 97.825 234.584 85.05 228.918C72.275 223.253 61.1625 215.563 51.7125 205.851C42.2625 196.138 34.7812 184.717 29.2687 171.587C23.7562 158.458 21 144.428 21 129.5C21 114.571 23.7562 100.542 29.2687 87.4124C34.7812 74.2826 42.2625 62.8614 51.7125 53.1489C61.1625 43.4364 72.275 35.7473 85.05 30.0817C97.825 24.4161 111.475 21.5833 126 21.5833C140.525 21.5833 154.175 24.4161 166.95 30.0817C179.725 35.7473 190.837 43.4364 200.287 53.1489C209.737 62.8614 217.219 74.2826 222.731 87.4124C228.244 100.542 231 114.571 231 129.5C231 144.428 228.244 158.458 222.731 171.587C217.219 184.717 209.737 196.138 200.287 205.851C190.837 215.563 179.725 223.253 166.95 228.918C154.175 234.584 140.525 237.417 126 237.417ZM111.825 44.5155C119.175 57.1058 129.15 67.223 141.75 74.8671C154.35 82.5112 168.35 86.3333 183.75 86.3333C186.2 86.3333 188.562 86.1984 190.837 85.9286C193.112 85.6588 195.475 85.344 197.925 84.9843C190.575 72.394 180.6 62.2768 168 54.6327C155.4 46.9886 141.4 43.1666 126 43.1666C123.55 43.1666 121.187 43.3015 118.912 43.5713C116.637 43.8411 114.275 44.1558 111.825 44.5155ZM46.4625 102.251C55.3875 97.035 63.175 90.2902 69.825 82.0166C76.475 73.743 81.4625 64.4801 84.7875 54.228C75.8625 59.444 68.075 66.1888 61.425 74.4624C54.775 82.736 49.7875 91.9989 46.4625 102.251Z" fill="#50E3C2"/>
</svg>
