<svg width="40" height="40" viewBox="0 0 40 40" fill="none" xmlns="http://www.w3.org/2000/svg">
<rect width="40" height="40" rx="20" fill="#7CCC5E" fill-opacity="0.87"/>
<path d="M14.375 35C11.7639 35 9.54861 34.0903 7.72917 32.2708C5.90972 30.4514 5 28.2361 5 25.625C5 24.375 5.23611 23.1806 5.70833 22.0417C6.18056 20.9028 6.86111 19.8889 7.75 19L19 7.75C19.8889 6.86111 20.9028 6.18056 22.0417 5.70833C23.1806 5.23611 24.375 5 25.625 5C28.2361 5 30.4514 5.90972 32.2708 7.72917C34.0903 9.54861 35 11.7639 35 14.375C35 15.625 34.7639 16.8194 34.2917 17.9583C33.8194 19.0972 33.1389 20.1111 32.25 21L21 32.25C20.1111 33.1389 19.0972 33.8194 17.9583 34.2917C16.8194 34.7639 15.625 35 14.375 35ZM25.4583 23.0833L29.9167 18.6667C30.4722 18.1111 30.9028 17.4583 31.2083 16.7083C31.5139 15.9583 31.6667 15.1806 31.6667 14.375C31.6667 12.7083 31.0764 11.2847 29.8958 10.1042C28.7153 8.92361 27.2917 8.33333 25.625 8.33333C24.8194 8.33333 24.0417 8.48611 23.2917 8.79167C22.5417 9.09722 21.8889 9.52778 21.3333 10.0833L16.9167 14.5417L25.4583 23.0833ZM14.375 31.6667C15.1806 31.6667 15.9583 31.5139 16.7083 31.2083C17.4583 30.9028 18.1111 30.4722 18.6667 29.9167L23.0833 25.4583L14.5417 16.9167L10.0833 21.3333C9.52778 21.8889 9.09722 22.5417 8.79167 23.2917C8.48611 24.0417 8.33333 24.8194 8.33333 25.625C8.33333 27.2917 8.92361 28.7153 10.1042 29.8958C11.2847 31.0764 12.7083 31.6667 14.375 31.6667Z" fill="#212121"/>
</svg>
