<svg width="160" height="160" viewBox="0 0 160 160" fill="none" xmlns="http://www.w3.org/2000/svg">
<rect x="2" y="2" width="156" height="156" rx="78" fill="#50E3C2" fill-opacity="0.4"/>
<rect x="2" y="2" width="156" height="156" rx="78" stroke="#00796B" stroke-width="4"/>
<path d="M72.9643 106.278H86.0357V94.3333H96.9286V80H86.0357V68.0556H72.9643V80H62.0714V94.3333H72.9643V106.278ZM57.7143 123C55.3179 123 53.2664 122.064 51.5598 120.193C49.8533 118.322 49 116.072 49 113.444V60.8889C49 58.2611 49.8533 56.0116 51.5598 54.1403C53.2664 52.269 55.3179 51.3333 57.7143 51.3333H101.286C103.682 51.3333 105.734 52.269 107.44 54.1403C109.147 56.0116 110 58.2611 110 60.8889V113.444C110 116.072 109.147 118.322 107.44 120.193C105.734 122.064 103.682 123 101.286 123H57.7143ZM57.7143 113.444H101.286V60.8889H57.7143V113.444ZM53.3571 46.5556V37H105.643V46.5556H53.3571Z" fill="#00796B"/>
</svg>
