<svg width="40" height="40" viewBox="0 0 40 40" fill="none" xmlns="http://www.w3.org/2000/svg">
<rect width="40" height="40" rx="20" fill="#F75C5C" fill-opacity="0.84"/>
<path d="M28.9163 24.3333L26.583 21.9999L29.9163 18.6666C30.4719 18.111 30.9025 17.4583 31.208 16.7083C31.5136 15.9583 31.6663 15.1805 31.6663 14.3749C31.6663 12.7083 31.0761 11.2846 29.8955 10.1041C28.715 8.92353 27.2913 8.33325 25.6247 8.33325C24.8191 8.33325 24.0413 8.48603 23.2913 8.79159C22.5413 9.09714 21.8886 9.5277 21.333 10.0833L17.9997 13.4166L15.6663 11.0833L18.9997 7.74992C19.8886 6.86103 20.9025 6.18047 22.0413 5.70825C23.1802 5.23603 24.3747 4.99992 25.6247 4.99992C28.2358 4.99992 30.4511 5.90964 32.2705 7.72909C34.09 9.54853 34.9997 11.7638 34.9997 14.3749C34.9997 15.6249 34.7636 16.8194 34.2913 17.9583C33.8191 19.0971 33.1386 20.111 32.2497 20.9999L28.9163 24.3333ZM14.3747 31.6666C15.1802 31.6666 15.958 31.5138 16.708 31.2083C17.458 30.9027 18.1108 30.4721 18.6663 29.9166L21.8747 26.7083L13.2913 18.1249L10.083 21.3333C9.52745 21.8888 9.0969 22.5416 8.79134 23.2916C8.48579 24.0416 8.33301 24.8194 8.33301 25.6249C8.33301 27.2916 8.92329 28.7152 10.1038 29.8958C11.2844 31.0763 12.708 31.6666 14.3747 31.6666ZM32.9997 37.8333L24.208 29.0416L20.9997 32.2499C20.1108 33.1388 19.0969 33.8194 17.958 34.2916C16.8191 34.7638 15.6247 34.9999 14.3747 34.9999C11.7636 34.9999 9.54829 34.0902 7.72884 32.2708C5.9094 30.4513 4.99967 28.236 4.99967 25.6249C4.99967 24.3749 5.23579 23.1805 5.70801 22.0416C6.18023 20.9027 6.86079 19.8888 7.74968 18.9999L10.958 15.7916L2.33301 7.16659L4.66634 4.83325L35.333 35.4999L32.9997 37.8333Z" fill="#212121"/>
</svg>
