<svg width="217" height="81" viewBox="0 0 217 81" fill="none" xmlns="http://www.w3.org/2000/svg">
<rect x="2" y="2" width="213" height="77" rx="38.5" stroke="#00796B" stroke-width="4" stroke-linecap="round"/>
<path d="M72.7051 23.5669L59.29 60.5H53.8071L69.2539 19.9766H72.7886L72.7051 23.5669ZM83.9492 60.5L70.5063 23.5669L70.4229 19.9766H73.9575L89.46 60.5H83.9492ZM83.2534 45.4985V49.896H60.4868V45.4985H83.2534ZM112.839 54.6553V17.75H118.016V60.5H113.285L112.839 54.6553ZM92.5776 45.7769V45.1924C92.5776 42.8916 92.856 40.8042 93.4126 38.9302C93.9878 37.0376 94.7949 35.4141 95.834 34.0596C96.8916 32.7051 98.144 31.666 99.5913 30.9424C101.057 30.2002 102.69 29.8291 104.49 29.8291C106.382 29.8291 108.034 30.1631 109.444 30.8311C110.873 31.4805 112.079 32.436 113.062 33.6978C114.064 34.9409 114.853 36.4438 115.428 38.2065C116.003 39.9692 116.402 41.9639 116.625 44.1904V46.751C116.42 48.959 116.021 50.9443 115.428 52.707C114.853 54.4697 114.064 55.9727 113.062 57.2158C112.079 58.459 110.873 59.4146 109.444 60.0825C108.015 60.7319 106.345 61.0566 104.434 61.0566C102.671 61.0566 101.057 60.6763 99.5913 59.9155C98.144 59.1548 96.8916 58.0879 95.834 56.7148C94.7949 55.3418 93.9878 53.7275 93.4126 51.8721C92.856 49.998 92.5776 47.9663 92.5776 45.7769ZM97.7544 45.1924V45.7769C97.7544 47.2798 97.9028 48.6899 98.1997 50.0073C98.5151 51.3247 98.9976 52.4844 99.647 53.4863C100.296 54.4883 101.122 55.2769 102.124 55.8521C103.126 56.4087 104.323 56.687 105.714 56.687C107.421 56.687 108.822 56.3252 109.917 55.6016C111.03 54.8779 111.921 53.9224 112.589 52.7349C113.257 51.5474 113.776 50.2578 114.147 48.8662V42.1587C113.925 41.1382 113.6 40.1548 113.173 39.2085C112.765 38.2437 112.227 37.3901 111.559 36.6479C110.91 35.8872 110.103 35.2842 109.138 34.8389C108.191 34.3936 107.069 34.1709 105.77 34.1709C104.36 34.1709 103.145 34.4678 102.124 35.0615C101.122 35.6367 100.296 36.4346 99.647 37.4551C98.9976 38.457 98.5151 39.626 98.1997 40.9619C97.9028 42.2793 97.7544 43.6895 97.7544 45.1924ZM144.763 54.6553V17.75H149.94V60.5H145.208L144.763 54.6553ZM124.501 45.7769V45.1924C124.501 42.8916 124.78 40.8042 125.336 38.9302C125.912 37.0376 126.719 35.4141 127.758 34.0596C128.815 32.7051 130.068 31.666 131.515 30.9424C132.981 30.2002 134.614 29.8291 136.414 29.8291C138.306 29.8291 139.958 30.1631 141.368 30.8311C142.796 31.4805 144.002 32.436 144.986 33.6978C145.988 34.9409 146.776 36.4438 147.352 38.2065C147.927 39.9692 148.326 41.9639 148.548 44.1904V46.751C148.344 48.959 147.945 50.9443 147.352 52.707C146.776 54.4697 145.988 55.9727 144.986 57.2158C144.002 58.459 142.796 59.4146 141.368 60.0825C139.939 60.7319 138.269 61.0566 136.358 61.0566C134.595 61.0566 132.981 60.6763 131.515 59.9155C130.068 59.1548 128.815 58.0879 127.758 56.7148C126.719 55.3418 125.912 53.7275 125.336 51.8721C124.78 49.998 124.501 47.9663 124.501 45.7769ZM129.678 45.1924V45.7769C129.678 47.2798 129.827 48.6899 130.124 50.0073C130.439 51.3247 130.921 52.4844 131.571 53.4863C132.22 54.4883 133.046 55.2769 134.048 55.8521C135.05 56.4087 136.247 56.687 137.638 56.687C139.345 56.687 140.746 56.3252 141.841 55.6016C142.954 54.8779 143.845 53.9224 144.513 52.7349C145.181 51.5474 145.7 50.2578 146.071 48.8662V42.1587C145.849 41.1382 145.524 40.1548 145.097 39.2085C144.689 38.2437 144.151 37.3901 143.483 36.6479C142.833 35.8872 142.026 35.2842 141.062 34.8389C140.115 34.3936 138.993 34.1709 137.694 34.1709C136.284 34.1709 135.068 34.4678 134.048 35.0615C133.046 35.6367 132.22 36.4346 131.571 37.4551C130.921 38.457 130.439 39.626 130.124 40.9619C129.827 42.2793 129.678 43.6895 129.678 45.1924Z" fill="#00796B"/>
</svg>
