<svg width="217" height="81" viewBox="0 0 217 81" fill="none" xmlns="http://www.w3.org/2000/svg">
<rect x="2" y="2" width="213" height="77" rx="38.5" fill="#50E3C2" fill-opacity="0.4"/>
<rect x="2" y="2" width="213" height="77" rx="38.5" stroke="#00796B" stroke-width="4" stroke-linecap="round"/>
<path d="M77.2051 22.5669L63.79 59.5H58.3071L73.7539 18.9766H77.2886L77.2051 22.5669ZM88.4492 59.5L75.0063 22.5669L74.9229 18.9766H78.4575L93.96 59.5H88.4492ZM87.7534 44.4985V48.896H64.9868V44.4985H87.7534ZM117.339 53.6553V16.75H122.516V59.5H117.785L117.339 53.6553ZM97.0776 44.7769V44.1924C97.0776 41.8916 97.356 39.8042 97.9126 37.9302C98.4878 36.0376 99.2949 34.4141 100.334 33.0596C101.392 31.7051 102.644 30.666 104.091 29.9424C105.557 29.2002 107.19 28.8291 108.99 28.8291C110.882 28.8291 112.534 29.1631 113.944 29.8311C115.373 30.4805 116.579 31.436 117.562 32.6978C118.564 33.9409 119.353 35.4438 119.928 37.2065C120.503 38.9692 120.902 40.9639 121.125 43.1904V45.751C120.92 47.959 120.521 49.9443 119.928 51.707C119.353 53.4697 118.564 54.9727 117.562 56.2158C116.579 57.459 115.373 58.4146 113.944 59.0825C112.515 59.7319 110.845 60.0566 108.934 60.0566C107.171 60.0566 105.557 59.6763 104.091 58.9155C102.644 58.1548 101.392 57.0879 100.334 55.7148C99.2949 54.3418 98.4878 52.7275 97.9126 50.8721C97.356 48.998 97.0776 46.9663 97.0776 44.7769ZM102.254 44.1924V44.7769C102.254 46.2798 102.403 47.6899 102.7 49.0073C103.015 50.3247 103.498 51.4844 104.147 52.4863C104.796 53.4883 105.622 54.2769 106.624 54.8521C107.626 55.4087 108.823 55.687 110.214 55.687C111.921 55.687 113.322 55.3252 114.417 54.6016C115.53 53.8779 116.421 52.9224 117.089 51.7349C117.757 50.5474 118.276 49.2578 118.647 47.8662V41.1587C118.425 40.1382 118.1 39.1548 117.673 38.2085C117.265 37.2437 116.727 36.3901 116.059 35.6479C115.41 34.8872 114.603 34.2842 113.638 33.8389C112.691 33.3936 111.569 33.1709 110.27 33.1709C108.86 33.1709 107.645 33.4678 106.624 34.0615C105.622 34.6367 104.796 35.4346 104.147 36.4551C103.498 37.457 103.015 38.626 102.7 39.9619C102.403 41.2793 102.254 42.6895 102.254 44.1924ZM149.263 53.6553V16.75H154.44V59.5H149.708L149.263 53.6553ZM129.001 44.7769V44.1924C129.001 41.8916 129.28 39.8042 129.836 37.9302C130.412 36.0376 131.219 34.4141 132.258 33.0596C133.315 31.7051 134.568 30.666 136.015 29.9424C137.481 29.2002 139.114 28.8291 140.914 28.8291C142.806 28.8291 144.458 29.1631 145.868 29.8311C147.296 30.4805 148.502 31.436 149.486 32.6978C150.488 33.9409 151.276 35.4438 151.852 37.2065C152.427 38.9692 152.826 40.9639 153.048 43.1904V45.751C152.844 47.959 152.445 49.9443 151.852 51.707C151.276 53.4697 150.488 54.9727 149.486 56.2158C148.502 57.459 147.296 58.4146 145.868 59.0825C144.439 59.7319 142.769 60.0566 140.858 60.0566C139.095 60.0566 137.481 59.6763 136.015 58.9155C134.568 58.1548 133.315 57.0879 132.258 55.7148C131.219 54.3418 130.412 52.7275 129.836 50.8721C129.28 48.998 129.001 46.9663 129.001 44.7769ZM134.178 44.1924V44.7769C134.178 46.2798 134.327 47.6899 134.624 49.0073C134.939 50.3247 135.421 51.4844 136.071 52.4863C136.72 53.4883 137.546 54.2769 138.548 54.8521C139.55 55.4087 140.747 55.687 142.138 55.687C143.845 55.687 145.246 55.3252 146.341 54.6016C147.454 53.8779 148.345 52.9224 149.013 51.7349C149.681 50.5474 150.2 49.2578 150.571 47.8662V41.1587C150.349 40.1382 150.024 39.1548 149.597 38.2085C149.189 37.2437 148.651 36.3901 147.983 35.6479C147.333 34.8872 146.526 34.2842 145.562 33.8389C144.615 33.3936 143.493 33.1709 142.194 33.1709C140.784 33.1709 139.568 33.4678 138.548 34.0615C137.546 34.6367 136.72 35.4346 136.071 36.4551C135.421 37.457 134.939 38.626 134.624 39.9619C134.327 41.2793 134.178 42.6895 134.178 44.1924Z" fill="#00796B"/>
</svg>
