<svg width="80" height="80" viewBox="0 0 80 80" fill="none" xmlns="http://www.w3.org/2000/svg">
<rect x="2" y="2" width="76" height="76" rx="38" stroke="#EF0C0C" stroke-width="4"/>
<path d="M33.825 51.5L40 44.8556L46.175 51.5L49.5 47.9222L43.325 41.2778L49.5 34.6333L46.175 31.0556L40 37.7L33.825 31.0556L30.5 34.6333L36.675 41.2778L30.5 47.9222L33.825 51.5ZM28.125 63C26.8187 63 25.7005 62.4995 24.7703 61.4986C23.8401 60.4977 23.375 59.2944 23.375 57.8889V24.6667H21V19.5556H32.875V17H47.125V19.5556H59V24.6667H56.625V57.8889C56.625 59.2944 56.1599 60.4977 55.2297 61.4986C54.2995 62.4995 53.1812 63 51.875 63H28.125ZM51.875 24.6667H28.125V57.8889H51.875V24.6667Z" fill="#FF5252"/>
</svg>
