<svg width="160" height="160" viewBox="0 0 160 160" fill="none" xmlns="http://www.w3.org/2000/svg">
<rect x="2" y="2" width="156" height="156" rx="78" stroke="#50E3C2" stroke-width="4"/>
<path d="M77 62H59V56H77V38H83V56H101V62H83V80H77V62Z" fill="#00796B"/>
<path d="M94.6667 117.333H97.9917L120.8 94.525L117.475 91.2L94.6667 114.008V117.333ZM90 122V112.083L120.8 81.3417C121.267 80.9139 121.782 80.5833 122.346 80.35C122.91 80.1167 123.503 80 124.125 80C124.747 80 125.35 80.1167 125.933 80.35C126.517 80.5833 127.022 80.9333 127.45 81.4L130.658 84.6667C131.125 85.0944 131.465 85.6 131.679 86.1833C131.893 86.7667 132 87.35 132 87.9333C132 88.5556 131.893 89.1486 131.679 89.7125C131.465 90.2764 131.125 90.7917 130.658 91.2583L99.9167 122H90ZM119.108 92.8917L117.475 91.2L120.8 94.525L119.108 92.8917Z" fill="#00796B"/>
<path d="M21 100.667V94H67.6667V100.667H21Z" fill="#00796B"/>
</svg>
