<svg width="80" height="80" viewBox="0 0 80 80" fill="none" xmlns="http://www.w3.org/2000/svg">
<rect x="2" y="2" width="76" height="76" rx="38" stroke="#50E3C2" stroke-width="4"/>
<path d="M23.6667 56.3333H26.9917L49.8 33.525L46.475 30.2L23.6667 53.0083V56.3333ZM19 61V51.0833L49.8 20.3417C50.2667 19.9139 50.7819 19.5833 51.3458 19.35C51.9097 19.1167 52.5028 19 53.125 19C53.7472 19 54.35 19.1167 54.9333 19.35C55.5167 19.5833 56.0222 19.9333 56.45 20.4L59.6583 23.6667C60.125 24.0944 60.4653 24.6 60.6792 25.1833C60.8931 25.7667 61 26.35 61 26.9333C61 27.5556 60.8931 28.1486 60.6792 28.7125C60.4653 29.2764 60.125 29.7917 59.6583 30.2583L28.9167 61H19ZM48.1083 31.8917L46.475 30.2L49.8 33.525L48.1083 31.8917Z" fill="#00796B"/>
</svg>
