<svg width="44" height="44" viewBox="0 0 44 44" fill="none" xmlns="http://www.w3.org/2000/svg">
<path d="M11 35.2H15.4V30.8H19.8V26.4H15.4V22H11V26.4H6.6V30.8H11V35.2ZM24.2 27.5H37.4V24.2H24.2V27.5ZM24.2 34.1H33V30.8H24.2V34.1ZM4.4 44C3.19 44 2.15417 43.5692 1.2925 42.7075C0.430833 41.8458 0 40.81 0 39.6V15.4C0 14.19 0.430833 13.1542 1.2925 12.2925C2.15417 11.4308 3.19 11 4.4 11H15.4V4.4C15.4 3.19 15.8308 2.15417 16.6925 1.2925C17.5542 0.430833 18.59 0 19.8 0H24.2C25.41 0 26.4458 0.430833 27.3075 1.2925C28.1692 2.15417 28.6 3.19 28.6 4.4V11H39.6C40.81 11 41.8458 11.4308 42.7075 12.2925C43.5692 13.1542 44 14.19 44 15.4V39.6C44 40.81 43.5692 41.8458 42.7075 42.7075C41.8458 43.5692 40.81 44 39.6 44H4.4ZM4.4 39.6H39.6V15.4H28.6C28.6 16.61 28.1692 17.6458 27.3075 18.5075C26.4458 19.3692 25.41 19.8 24.2 19.8H19.8C18.59 19.8 17.5542 19.3692 16.6925 18.5075C15.8308 17.6458 15.4 16.61 15.4 15.4H4.4V39.6ZM19.8 15.4H24.2V4.4H19.8V15.4Z" fill="#00796B"/>
</svg>
