<svg width="150" height="102" viewBox="0 0 150 102" fill="none" xmlns="http://www.w3.org/2000/svg">
<path d="M5.9375 55.2947C4.0625 52.0737 2.60417 48.8079 1.5625 45.4974C0.520833 42.1868 0 38.8316 0 35.4316C0 25.4105 3.95833 17 11.875 10.2C19.7917 3.4 29.5833 0 41.25 0C47.8125 0 54.0625 1.18553 60 3.55658C65.9375 5.92763 70.9375 9.21579 75 13.4211C79.0625 9.21579 84.0625 5.92763 90 3.55658C95.9375 1.18553 102.188 0 108.75 0C120.417 0 130.208 3.4 138.125 10.2C146.042 17 150 25.4105 150 35.4316C150 38.8316 149.479 42.1868 148.438 45.4974C147.396 48.8079 145.938 52.0737 144.062 55.2947C142.917 53.5947 141.562 52.0737 140 50.7316C138.438 49.3895 136.615 48.3158 134.531 47.5105C135.469 45.4526 136.198 43.4395 136.719 41.4711C137.24 39.5026 137.5 37.4895 137.5 35.4316C137.5 28.4526 134.74 22.5921 129.219 17.85C123.698 13.1079 116.875 10.7368 108.75 10.7368C100.312 10.7368 93.8281 12.7276 89.2969 16.7092C84.7656 20.6908 80 25.1421 75 30.0632C70 25.0526 65.2344 20.5789 60.7031 16.6421C56.1719 12.7053 49.6875 10.7368 41.25 10.7368C33.125 10.7368 26.3021 13.1079 20.7812 17.85C15.2604 22.5921 12.5 28.4526 12.5 35.4316C12.5 37.4895 12.7604 39.5026 13.2812 41.4711C13.8021 43.4395 14.5312 45.4526 15.4688 47.5105C13.3854 48.3158 11.5625 49.3895 10 50.7316C8.4375 52.0737 7.08333 53.5947 5.9375 55.2947ZM0 102V93.5447C0 89.6079 2.31771 86.4539 6.95312 84.0829C11.5885 81.7118 17.6042 80.5263 25 80.5263C26.3542 80.5263 27.6562 80.5487 28.9062 80.5934C30.1562 80.6382 31.3542 80.75 32.5 80.9289C31.0417 82.7184 29.9479 84.6421 29.2188 86.7C28.4896 88.7579 28.125 90.95 28.125 93.2763V102H0ZM37.5 102V93.2763C37.5 87.4605 40.9635 82.7632 47.8906 79.1842C54.8177 75.6053 63.8542 73.8158 75 73.8158C86.25 73.8158 95.3125 75.6053 102.188 79.1842C109.062 82.7632 112.5 87.4605 112.5 93.2763V102H37.5ZM121.875 102V93.2763C121.875 90.95 121.536 88.7579 120.859 86.7C120.182 84.6421 119.167 82.7184 117.812 80.9289C118.958 80.75 120.13 80.6382 121.328 80.5934C122.526 80.5487 123.75 80.5263 125 80.5263C132.5 80.5263 138.542 81.7118 143.125 84.0829C147.708 86.4539 150 89.6079 150 93.5447V102H121.875ZM75 84.5526C69.0625 84.5526 63.75 85.2237 59.0625 86.5658C54.375 87.9079 51.6146 89.4737 50.7812 91.2632H99.375C98.4375 89.4737 95.651 87.9079 91.0156 86.5658C86.3802 85.2237 81.0417 84.5526 75 84.5526ZM25 75.1579C21.5625 75.1579 18.6198 74.1066 16.1719 72.0039C13.724 69.9013 12.5 67.3737 12.5 64.4211C12.5 61.3789 13.724 58.8289 16.1719 56.7711C18.6198 54.7132 21.5625 53.6842 25 53.6842C28.5417 53.6842 31.5104 54.7132 33.9062 56.7711C36.3021 58.8289 37.5 61.3789 37.5 64.4211C37.5 67.3737 36.3021 69.9013 33.9062 72.0039C31.5104 74.1066 28.5417 75.1579 25 75.1579ZM125 75.1579C121.562 75.1579 118.62 74.1066 116.172 72.0039C113.724 69.9013 112.5 67.3737 112.5 64.4211C112.5 61.3789 113.724 58.8289 116.172 56.7711C118.62 54.7132 121.562 53.6842 125 53.6842C128.542 53.6842 131.51 54.7132 133.906 56.7711C136.302 58.8289 137.5 61.3789 137.5 64.4211C137.5 67.3737 136.302 69.9013 133.906 72.0039C131.51 74.1066 128.542 75.1579 125 75.1579ZM75 69.7895C69.7917 69.7895 65.3646 68.2237 61.7188 65.0921C58.0729 61.9605 56.25 58.1579 56.25 53.6842C56.25 49.1211 58.0729 45.2961 61.7188 42.2092C65.3646 39.1224 69.7917 37.5789 75 37.5789C80.3125 37.5789 84.7656 39.1224 88.3594 42.2092C91.9531 45.2961 93.75 49.1211 93.75 53.6842C93.75 58.1579 91.9531 61.9605 88.3594 65.0921C84.7656 68.2237 80.3125 69.7895 75 69.7895ZM75 48.3158C73.2292 48.3158 71.7448 48.8303 70.5469 49.8592C69.349 50.8882 68.75 52.1632 68.75 53.6842C68.75 55.2053 69.349 56.4803 70.5469 57.5092C71.7448 58.5382 73.2292 59.0526 75 59.0526C76.7708 59.0526 78.2552 58.5382 79.4531 57.5092C80.651 56.4803 81.25 55.2053 81.25 53.6842C81.25 52.1632 80.651 50.8882 79.4531 49.8592C78.2552 48.8303 76.7708 48.3158 75 48.3158Z" fill="#FF5252"/>
</svg>
