<svg width="160" height="160" viewBox="0 0 160 160" fill="none" xmlns="http://www.w3.org/2000/svg">
<rect x="2" y="2" width="156" height="156" rx="78" fill="#50E3C2" fill-opacity="0.4"/>
<rect x="2" y="2" width="156" height="156" rx="78" stroke="#00796B" stroke-width="4"/>
<path d="M73.1332 110.972H87.3876V96.6667H99.2664V79.5H87.3876V65.1944H73.1332V79.5H61.2545V96.6667H73.1332V110.972ZM56.503 131C53.8897 131 51.6525 129.879 49.7915 127.638C47.9305 125.397 47 122.703 47 119.556V56.6111C47 53.4639 47.9305 50.7697 49.7915 48.5285C51.6525 46.2873 53.8897 45.1667 56.503 45.1667H104.018C106.631 45.1667 108.868 46.2873 110.729 48.5285C112.59 50.7697 113.521 53.4639 113.521 56.6111V119.556C113.521 122.703 112.59 125.397 110.729 127.638C108.868 129.879 106.631 131 104.018 131H56.503ZM56.503 119.556H104.018V56.6111H56.503V119.556ZM51.7515 39.4444V28H108.769V39.4444H51.7515Z" fill="#00796B"/>
</svg>
